<svg width="352" height="348" viewBox="0 0 352 348" fill="none" xmlns="http://www.w3.org/2000/svg">
<g filter="url(#filter0_d_1_16)">
<path d="M217.048 329.246C195.213 329.246 175.804 325.505 158.821 318.025C141.939 310.544 128.595 300.132 118.789 286.788C108.984 273.445 103.778 258.029 103.171 240.54H160.185C160.691 248.931 163.471 256.259 168.525 262.527C173.58 268.693 180.302 273.495 188.692 276.932C197.083 280.369 206.484 282.088 216.896 282.088C228.016 282.088 237.872 280.167 246.465 276.326C255.057 272.383 261.78 266.924 266.632 259.949C271.484 252.974 273.86 244.938 273.759 235.839C273.86 226.438 271.434 218.149 266.48 210.972C261.527 203.794 254.35 198.184 244.949 194.14C235.648 190.097 224.427 188.075 211.286 188.075H183.84V144.708H211.286C222.102 144.708 231.554 142.838 239.641 139.097C247.83 135.357 254.249 130.1 258.899 123.327C263.549 116.453 265.823 108.518 265.722 99.521C265.823 90.7262 263.852 83.094 259.809 76.6243C255.866 70.0535 250.256 64.9485 242.977 61.3093C235.8 57.6701 227.359 55.8505 217.654 55.8505C208.152 55.8505 199.357 57.569 191.27 61.006C183.183 64.4431 176.663 69.3459 171.71 75.7145C166.756 81.982 164.128 89.4626 163.825 98.1563H109.691C110.096 80.7689 115.1 65.5045 124.703 52.3629C134.408 39.1203 147.347 28.8092 163.521 21.4297C179.696 13.9491 197.841 10.2088 217.958 10.2088C238.681 10.2088 256.675 14.1007 271.939 21.8846C287.305 29.5673 299.183 39.929 307.573 52.9695C315.964 66.0099 320.159 80.4151 320.159 96.185C320.26 113.673 315.104 128.331 304.692 140.159C294.381 151.986 280.835 159.719 264.054 163.359V165.785C285.89 168.817 302.62 176.905 314.245 190.046C325.971 203.087 331.784 219.311 331.683 238.721C331.683 256.108 326.73 271.676 316.823 285.424C307.017 299.071 293.471 309.786 276.185 317.57C259 325.354 239.288 329.246 217.048 329.246Z" fill="#D97A0D"/>
<path d="M113.864 325H8.62997V14.4545H115.987C146.819 14.4545 173.304 20.6715 195.442 33.1055C217.682 45.4383 234.766 63.1794 246.695 86.3288C258.623 109.478 264.587 137.177 264.587 169.424C264.587 201.772 258.573 229.572 246.543 252.822C234.614 276.073 217.379 293.915 194.836 306.349C172.394 318.783 145.403 325 113.864 325ZM64.886 276.326H111.134C132.767 276.326 150.812 272.383 165.267 264.498C179.723 256.512 190.59 244.634 197.869 228.864C205.147 212.993 208.786 193.18 208.786 169.424C208.786 145.668 205.147 125.956 197.869 110.287C190.59 94.5171 179.824 82.7402 165.571 74.9563C151.418 67.0714 133.829 63.1289 112.802 63.1289H64.886V276.326Z" fill="white"/>
</g>
<defs>
<filter id="filter0_d_1_16" x="0.629974" y="0.208801" width="351.054" height="347.037" filterUnits="userSpaceOnUse" color-interpolation-filters="sRGB">
<feFlood flood-opacity="0" result="BackgroundImageFix"/>
<feColorMatrix in="SourceAlpha" type="matrix" values="0 0 0 0 0 0 0 0 0 0 0 0 0 0 0 0 0 0 127 0" result="hardAlpha"/>
<feOffset dx="6" dy="4"/>
<feGaussianBlur stdDeviation="7"/>
<feComposite in2="hardAlpha" operator="out"/>
<feColorMatrix type="matrix" values="0 0 0 0 0 0 0 0 0 0 0 0 0 0 0 0 0 0 0.25 0"/>
<feBlend mode="normal" in2="BackgroundImageFix" result="effect1_dropShadow_1_16"/>
<feBlend mode="normal" in="SourceGraphic" in2="effect1_dropShadow_1_16" result="shape"/>
</filter>
</defs>
</svg>
